<mxfile host="65bd71144e" pages="6">
    <diagram id="C68sReiRUDlqRLIxnfzF" name="SETUP">
        <mxGraphModel dx="1118" dy="601" grid="1" gridSize="10" guides="1" tooltips="1" connect="1" arrows="1" fold="1" page="1" pageScale="1" pageWidth="827" pageHeight="1169" math="0" shadow="1">
            <root>
                <mxCell id="K7uDxr5wtV0CTtCzgxPd-0"/>
                <mxCell id="K7uDxr5wtV0CTtCzgxPd-1" parent="K7uDxr5wtV0CTtCzgxPd-0"/>
                <mxCell id="WEzHxAsvfqelYadUuqDG-0" style="edgeStyle=orthogonalEdgeStyle;rounded=0;orthogonalLoop=1;jettySize=auto;html=1;exitX=0.5;exitY=1;exitDx=0;exitDy=0;entryX=0.5;entryY=0;entryDx=0;entryDy=0;" parent="K7uDxr5wtV0CTtCzgxPd-1" source="K7uDxr5wtV0CTtCzgxPd-3" target="K7uDxr5wtV0CTtCzgxPd-4" edge="1">
                    <mxGeometry relative="1" as="geometry"/>
                </mxCell>
                <mxCell id="K7uDxr5wtV0CTtCzgxPd-3" value="SETUP" style="rounded=1;whiteSpace=wrap;html=1;" parent="K7uDxr5wtV0CTtCzgxPd-1" vertex="1">
                    <mxGeometry x="340" width="120" height="60" as="geometry"/>
                </mxCell>
                <mxCell id="K7uDxr5wtV0CTtCzgxPd-10" value="" style="edgeStyle=orthogonalEdgeStyle;rounded=0;orthogonalLoop=1;jettySize=auto;html=1;" parent="K7uDxr5wtV0CTtCzgxPd-1" source="K7uDxr5wtV0CTtCzgxPd-4" target="K7uDxr5wtV0CTtCzgxPd-9" edge="1">
                    <mxGeometry relative="1" as="geometry">
                        <Array as="points">
                            <mxPoint x="400" y="370"/>
                            <mxPoint x="400" y="370"/>
                        </Array>
                    </mxGeometry>
                </mxCell>
                <mxCell id="K7uDxr5wtV0CTtCzgxPd-11" value="SI" style="edgeLabel;html=1;align=center;verticalAlign=middle;resizable=0;points=[];" parent="K7uDxr5wtV0CTtCzgxPd-10" vertex="1" connectable="0">
                    <mxGeometry x="-0.1524" y="1" relative="1" as="geometry">
                        <mxPoint as="offset"/>
                    </mxGeometry>
                </mxCell>
                <mxCell id="xfpYwV9ezj49aCp2FUte-1" style="edgeStyle=orthogonalEdgeStyle;rounded=0;orthogonalLoop=1;jettySize=auto;html=1;exitX=0;exitY=0.5;exitDx=0;exitDy=0;" parent="K7uDxr5wtV0CTtCzgxPd-1" source="K7uDxr5wtV0CTtCzgxPd-4" edge="1">
                    <mxGeometry relative="1" as="geometry">
                        <mxPoint x="400" y="250" as="targetPoint"/>
                        <Array as="points">
                            <mxPoint x="270" y="240"/>
                            <mxPoint x="270" y="140"/>
                            <mxPoint x="400" y="140"/>
                        </Array>
                    </mxGeometry>
                </mxCell>
                <mxCell id="xfpYwV9ezj49aCp2FUte-2" value="NO" style="edgeLabel;html=1;align=center;verticalAlign=middle;resizable=0;points=[];" parent="xfpYwV9ezj49aCp2FUte-1" vertex="1" connectable="0">
                    <mxGeometry x="-0.1091" y="-1" relative="1" as="geometry">
                        <mxPoint x="32" as="offset"/>
                    </mxGeometry>
                </mxCell>
                <mxCell id="K7uDxr5wtV0CTtCzgxPd-4" value="N ACTIVADO" style="rhombus;whiteSpace=wrap;html=1;" parent="K7uDxr5wtV0CTtCzgxPd-1" vertex="1">
                    <mxGeometry x="290" y="200" width="220" height="80" as="geometry"/>
                </mxCell>
                <mxCell id="K7uDxr5wtV0CTtCzgxPd-9" value="RETURN 1 (CONTINUA)" style="whiteSpace=wrap;html=1;" parent="K7uDxr5wtV0CTtCzgxPd-1" vertex="1">
                    <mxGeometry x="340" y="390" width="120" height="60" as="geometry"/>
                </mxCell>
            </root>
        </mxGraphModel>
    </diagram>
    <diagram id="C5RBs43oDa-KdzZeNtuy" name="MAIN">
        <mxGraphModel dx="1422" dy="1971" grid="1" gridSize="10" guides="1" tooltips="1" connect="1" arrows="1" fold="1" page="1" pageScale="1" pageWidth="827" pageHeight="1169" math="0" shadow="0">
            <root>
                <mxCell id="WIyWlLk6GJQsqaUBKTNV-0"/>
                <mxCell id="WIyWlLk6GJQsqaUBKTNV-1" parent="WIyWlLk6GJQsqaUBKTNV-0"/>
                <mxCell id="KvSb7RXvwuKSi4vFXu24-12" value="" style="edgeStyle=orthogonalEdgeStyle;rounded=0;orthogonalLoop=1;jettySize=auto;html=1;" parent="WIyWlLk6GJQsqaUBKTNV-1" source="KvSb7RXvwuKSi4vFXu24-8" target="KvSb7RXvwuKSi4vFXu24-11" edge="1">
                    <mxGeometry relative="1" as="geometry"/>
                </mxCell>
                <mxCell id="KvSb7RXvwuKSi4vFXu24-8" value="MAIN LOOP" style="rounded=1;whiteSpace=wrap;html=1;" parent="WIyWlLk6GJQsqaUBKTNV-1" vertex="1">
                    <mxGeometry x="354" y="-1169" width="120" height="60" as="geometry"/>
                </mxCell>
                <mxCell id="KvSb7RXvwuKSi4vFXu24-10" style="edgeStyle=orthogonalEdgeStyle;rounded=0;orthogonalLoop=1;jettySize=auto;html=1;exitX=0;exitY=0.5;exitDx=0;exitDy=0;entryX=0;entryY=0.5;entryDx=0;entryDy=0;" parent="WIyWlLk6GJQsqaUBKTNV-1" source="KvSb7RXvwuKSi4vFXu24-9" target="KvSb7RXvwuKSi4vFXu24-8" edge="1">
                    <mxGeometry relative="1" as="geometry">
                        <Array as="points">
                            <mxPoint x="210" y="-660"/>
                            <mxPoint x="210" y="-1139"/>
                        </Array>
                    </mxGeometry>
                </mxCell>
                <mxCell id="KvSb7RXvwuKSi4vFXu24-9" value="END" style="rounded=1;whiteSpace=wrap;html=1;" parent="WIyWlLk6GJQsqaUBKTNV-1" vertex="1">
                    <mxGeometry x="354" y="-690" width="120" height="60" as="geometry"/>
                </mxCell>
                <mxCell id="s6UJPGp6cZbi-DgDdwDL-1" value="" style="edgeStyle=orthogonalEdgeStyle;rounded=0;orthogonalLoop=1;jettySize=auto;html=1;" parent="WIyWlLk6GJQsqaUBKTNV-1" source="KvSb7RXvwuKSi4vFXu24-11" target="s6UJPGp6cZbi-DgDdwDL-0" edge="1">
                    <mxGeometry relative="1" as="geometry"/>
                </mxCell>
                <mxCell id="KvSb7RXvwuKSi4vFXu24-11" value="LEER ENTRADAS" style="shape=process;whiteSpace=wrap;html=1;backgroundOutline=1;rounded=1;direction=west;" parent="WIyWlLk6GJQsqaUBKTNV-1" vertex="1">
                    <mxGeometry x="354" y="-1090" width="120" height="60" as="geometry"/>
                </mxCell>
                <mxCell id="KvSb7RXvwuKSi4vFXu24-20" value="" style="edgeStyle=orthogonalEdgeStyle;rounded=0;orthogonalLoop=1;jettySize=auto;html=1;" parent="WIyWlLk6GJQsqaUBKTNV-1" source="KvSb7RXvwuKSi4vFXu24-17" target="KvSb7RXvwuKSi4vFXu24-19" edge="1">
                    <mxGeometry relative="1" as="geometry"/>
                </mxCell>
                <mxCell id="KvSb7RXvwuKSi4vFXu24-24" value="SI" style="edgeLabel;html=1;align=center;verticalAlign=middle;resizable=0;points=[];" parent="KvSb7RXvwuKSi4vFXu24-20" vertex="1" connectable="0">
                    <mxGeometry x="-0.254" y="2" relative="1" as="geometry">
                        <mxPoint as="offset"/>
                    </mxGeometry>
                </mxCell>
                <mxCell id="KvSb7RXvwuKSi4vFXu24-29" value="" style="edgeStyle=orthogonalEdgeStyle;rounded=0;orthogonalLoop=1;jettySize=auto;html=1;entryX=0.5;entryY=0;entryDx=0;entryDy=0;" parent="WIyWlLk6GJQsqaUBKTNV-1" source="KvSb7RXvwuKSi4vFXu24-17" target="KvSb7RXvwuKSi4vFXu24-25" edge="1">
                    <mxGeometry relative="1" as="geometry">
                        <mxPoint x="410" y="-770" as="targetPoint"/>
                    </mxGeometry>
                </mxCell>
                <mxCell id="KvSb7RXvwuKSi4vFXu24-32" value="NO" style="edgeLabel;html=1;align=center;verticalAlign=middle;resizable=0;points=[];" parent="KvSb7RXvwuKSi4vFXu24-29" vertex="1" connectable="0">
                    <mxGeometry x="-0.3153" y="4" relative="1" as="geometry">
                        <mxPoint as="offset"/>
                    </mxGeometry>
                </mxCell>
                <mxCell id="KvSb7RXvwuKSi4vFXu24-17" value="PUEDO METER MARCHA?&amp;nbsp;" style="rhombus;whiteSpace=wrap;html=1;rounded=1;" parent="WIyWlLk6GJQsqaUBKTNV-1" vertex="1">
                    <mxGeometry x="341" y="-910" width="146" height="90" as="geometry"/>
                </mxCell>
                <mxCell id="KvSb7RXvwuKSi4vFXu24-19" value="ACTIVAR MARCHA (UP,DOWN)" style="shape=process;whiteSpace=wrap;html=1;backgroundOutline=1;rounded=1;" parent="WIyWlLk6GJQsqaUBKTNV-1" vertex="1">
                    <mxGeometry x="580" y="-895" width="120" height="60" as="geometry"/>
                </mxCell>
                <mxCell id="KvSb7RXvwuKSi4vFXu24-21" value="" style="endArrow=none;dashed=1;html=1;dashPattern=1 3;strokeWidth=2;exitX=1;exitY=0;exitDx=0;exitDy=0;entryX=0;entryY=0.5;entryDx=0;entryDy=0;" parent="WIyWlLk6GJQsqaUBKTNV-1" source="KvSb7RXvwuKSi4vFXu24-17" target="KvSb7RXvwuKSi4vFXu24-23" edge="1">
                    <mxGeometry width="50" height="50" relative="1" as="geometry">
                        <mxPoint x="270" y="-940" as="sourcePoint"/>
                        <mxPoint x="551.5135135135135" y="-1050" as="targetPoint"/>
                    </mxGeometry>
                </mxCell>
                <mxCell id="KvSb7RXvwuKSi4vFXu24-23" value="COMPRUEBA SI SE PUEDE METER" style="shape=process;whiteSpace=wrap;html=1;backgroundOutline=1;" parent="WIyWlLk6GJQsqaUBKTNV-1" vertex="1">
                    <mxGeometry x="580" y="-1000" width="120" height="60" as="geometry"/>
                </mxCell>
                <mxCell id="KvSb7RXvwuKSi4vFXu24-36" style="edgeStyle=orthogonalEdgeStyle;rounded=0;orthogonalLoop=1;jettySize=auto;html=1;exitX=0.5;exitY=1;exitDx=0;exitDy=0;entryX=0.5;entryY=0;entryDx=0;entryDy=0;" parent="WIyWlLk6GJQsqaUBKTNV-1" source="KvSb7RXvwuKSi4vFXu24-25" target="KvSb7RXvwuKSi4vFXu24-9" edge="1">
                    <mxGeometry relative="1" as="geometry"/>
                </mxCell>
                <mxCell id="KvSb7RXvwuKSi4vFXu24-25" value="DISPLAY DATOS" style="shape=process;whiteSpace=wrap;html=1;backgroundOutline=1;rounded=1;" parent="WIyWlLk6GJQsqaUBKTNV-1" vertex="1">
                    <mxGeometry x="354" y="-780" width="120" height="60" as="geometry"/>
                </mxCell>
                <mxCell id="s6UJPGp6cZbi-DgDdwDL-2" style="edgeStyle=orthogonalEdgeStyle;rounded=0;orthogonalLoop=1;jettySize=auto;html=1;exitX=0.5;exitY=1;exitDx=0;exitDy=0;entryX=0.5;entryY=0;entryDx=0;entryDy=0;" parent="WIyWlLk6GJQsqaUBKTNV-1" source="s6UJPGp6cZbi-DgDdwDL-0" target="KvSb7RXvwuKSi4vFXu24-17" edge="1">
                    <mxGeometry relative="1" as="geometry"/>
                </mxCell>
                <mxCell id="s6UJPGp6cZbi-DgDdwDL-0" value="COMPRUEBA RPM (SEGURIDAD)" style="shape=process;whiteSpace=wrap;html=1;backgroundOutline=1;rounded=1;" parent="WIyWlLk6GJQsqaUBKTNV-1" vertex="1">
                    <mxGeometry x="354" y="-1010" width="120" height="60" as="geometry"/>
                </mxCell>
            </root>
        </mxGraphModel>
    </diagram>
    <diagram id="Tef7wF1t_QZmeG6CbYbY" name="Comprobar si meter marcha">
        <mxGraphModel dx="1422" dy="802" grid="1" gridSize="10" guides="1" tooltips="1" connect="1" arrows="1" fold="1" page="1" pageScale="1" pageWidth="827" pageHeight="1169" math="0" shadow="0">
            <root>
                <mxCell id="QLCBrV8GI9gQZKOS1E-J-0"/>
                <mxCell id="QLCBrV8GI9gQZKOS1E-J-1" parent="QLCBrV8GI9gQZKOS1E-J-0"/>
                <mxCell id="ZG1GMyiMrAIFmlTobiE9-0" value="&lt;h1&gt;&lt;span&gt;Condiciones&lt;/span&gt;&lt;/h1&gt;&lt;h1&gt;&lt;ul&gt;&lt;li&gt;&lt;span style=&quot;font-size: 12px ; font-weight: 400&quot;&gt;RPM &amp;lt; vble_max_rpm_down&lt;/span&gt;&lt;/li&gt;&lt;li&gt;&lt;span style=&quot;font-size: 12px ; font-weight: 400&quot;&gt;marcha&amp;nbsp; &amp;gt;1 y&amp;nbsp; &amp;lt;6&lt;/span&gt;&lt;/li&gt;&lt;li&gt;&lt;span style=&quot;font-size: 12px ; font-weight: 400&quot;&gt;estado levas = 1&lt;/span&gt;&lt;/li&gt;&lt;/ul&gt;&lt;/h1&gt;" style="text;html=1;strokeColor=none;fillColor=none;spacing=5;spacingTop=-20;whiteSpace=wrap;overflow=hidden;rounded=0;" parent="QLCBrV8GI9gQZKOS1E-J-1" vertex="1">
                    <mxGeometry x="20" y="30" width="240" height="150" as="geometry"/>
                </mxCell>
                <mxCell id="ZG1GMyiMrAIFmlTobiE9-1" value="INICIO" style="rounded=1;whiteSpace=wrap;html=1;" parent="QLCBrV8GI9gQZKOS1E-J-1" vertex="1">
                    <mxGeometry x="354" y="20" width="120" height="60" as="geometry"/>
                </mxCell>
                <mxCell id="ZG1GMyiMrAIFmlTobiE9-2" value="FIN" style="rounded=1;whiteSpace=wrap;html=1;" parent="QLCBrV8GI9gQZKOS1E-J-1" vertex="1">
                    <mxGeometry x="354" y="740" width="120" height="60" as="geometry"/>
                </mxCell>
                <mxCell id="ZG1GMyiMrAIFmlTobiE9-7" value="" style="edgeStyle=orthogonalEdgeStyle;rounded=0;orthogonalLoop=1;jettySize=auto;html=1;" parent="QLCBrV8GI9gQZKOS1E-J-1" source="ZG1GMyiMrAIFmlTobiE9-4" target="ZG1GMyiMrAIFmlTobiE9-6" edge="1">
                    <mxGeometry relative="1" as="geometry"/>
                </mxCell>
                <mxCell id="ZG1GMyiMrAIFmlTobiE9-8" value="SI" style="edgeLabel;html=1;align=center;verticalAlign=middle;resizable=0;points=[];" parent="ZG1GMyiMrAIFmlTobiE9-7" vertex="1" connectable="0">
                    <mxGeometry x="-0.3008" y="-1" relative="1" as="geometry">
                        <mxPoint as="offset"/>
                    </mxGeometry>
                </mxCell>
                <mxCell id="ZG1GMyiMrAIFmlTobiE9-14" value="" style="edgeStyle=orthogonalEdgeStyle;rounded=0;orthogonalLoop=1;jettySize=auto;html=1;" parent="QLCBrV8GI9gQZKOS1E-J-1" source="ZG1GMyiMrAIFmlTobiE9-4" target="ZG1GMyiMrAIFmlTobiE9-13" edge="1">
                    <mxGeometry relative="1" as="geometry"/>
                </mxCell>
                <mxCell id="ZG1GMyiMrAIFmlTobiE9-15" value="NO" style="edgeLabel;html=1;align=center;verticalAlign=middle;resizable=0;points=[];" parent="ZG1GMyiMrAIFmlTobiE9-14" vertex="1" connectable="0">
                    <mxGeometry x="-0.2" y="4" relative="1" as="geometry">
                        <mxPoint x="-4" as="offset"/>
                    </mxGeometry>
                </mxCell>
                <mxCell id="ZG1GMyiMrAIFmlTobiE9-4" value="RPM &amp;lt; MAX_RPM_DOWN Y &lt;br&gt;MARCHA &amp;gt;=1 Y &amp;lt;=6 y&amp;nbsp;&lt;br&gt;estado_leva == 1" style="rhombus;whiteSpace=wrap;html=1;" parent="QLCBrV8GI9gQZKOS1E-J-1" vertex="1">
                    <mxGeometry x="270.5" y="290" width="287" height="120" as="geometry"/>
                </mxCell>
                <mxCell id="ZG1GMyiMrAIFmlTobiE9-6" value="RETURN 1" style="whiteSpace=wrap;html=1;" parent="QLCBrV8GI9gQZKOS1E-J-1" vertex="1">
                    <mxGeometry x="690" y="480" width="120" height="60" as="geometry"/>
                </mxCell>
                <mxCell id="ZG1GMyiMrAIFmlTobiE9-16" style="edgeStyle=orthogonalEdgeStyle;rounded=0;orthogonalLoop=1;jettySize=auto;html=1;exitX=0.5;exitY=1;exitDx=0;exitDy=0;entryX=0.5;entryY=0;entryDx=0;entryDy=0;" parent="QLCBrV8GI9gQZKOS1E-J-1" source="ZG1GMyiMrAIFmlTobiE9-13" target="ZG1GMyiMrAIFmlTobiE9-2" edge="1">
                    <mxGeometry relative="1" as="geometry"/>
                </mxCell>
                <mxCell id="ZG1GMyiMrAIFmlTobiE9-13" value="RETURN 0" style="whiteSpace=wrap;html=1;" parent="QLCBrV8GI9gQZKOS1E-J-1" vertex="1">
                    <mxGeometry x="354" y="525" width="120" height="60" as="geometry"/>
                </mxCell>
                <mxCell id="u7kQMCbuKimH8sWiMMX5-2" value="" style="edgeStyle=orthogonalEdgeStyle;rounded=0;orthogonalLoop=1;jettySize=auto;html=1;" edge="1" parent="QLCBrV8GI9gQZKOS1E-J-1" source="u7kQMCbuKimH8sWiMMX5-0" target="u7kQMCbuKimH8sWiMMX5-1">
                    <mxGeometry relative="1" as="geometry"/>
                </mxCell>
                <mxCell id="u7kQMCbuKimH8sWiMMX5-3" value="SI" style="edgeLabel;html=1;align=center;verticalAlign=middle;resizable=0;points=[];" vertex="1" connectable="0" parent="u7kQMCbuKimH8sWiMMX5-2">
                    <mxGeometry x="-0.2568" y="-2" relative="1" as="geometry">
                        <mxPoint as="offset"/>
                    </mxGeometry>
                </mxCell>
                <mxCell id="u7kQMCbuKimH8sWiMMX5-4" style="edgeStyle=orthogonalEdgeStyle;rounded=0;orthogonalLoop=1;jettySize=auto;html=1;exitX=0.5;exitY=0;exitDx=0;exitDy=0;entryX=0.5;entryY=1;entryDx=0;entryDy=0;" edge="1" parent="QLCBrV8GI9gQZKOS1E-J-1" source="u7kQMCbuKimH8sWiMMX5-0" target="ZG1GMyiMrAIFmlTobiE9-1">
                    <mxGeometry relative="1" as="geometry"/>
                </mxCell>
                <mxCell id="u7kQMCbuKimH8sWiMMX5-5" style="edgeStyle=orthogonalEdgeStyle;rounded=0;orthogonalLoop=1;jettySize=auto;html=1;exitX=0.5;exitY=1;exitDx=0;exitDy=0;entryX=0.5;entryY=0;entryDx=0;entryDy=0;" edge="1" parent="QLCBrV8GI9gQZKOS1E-J-1" source="u7kQMCbuKimH8sWiMMX5-0" target="ZG1GMyiMrAIFmlTobiE9-4">
                    <mxGeometry relative="1" as="geometry">
                        <mxPoint x="500" y="300" as="targetPoint"/>
                    </mxGeometry>
                </mxCell>
                <mxCell id="u7kQMCbuKimH8sWiMMX5-0" value="Neutral metida?" style="rhombus;whiteSpace=wrap;html=1;" vertex="1" parent="QLCBrV8GI9gQZKOS1E-J-1">
                    <mxGeometry x="341" y="130" width="146" height="100" as="geometry"/>
                </mxCell>
                <mxCell id="u7kQMCbuKimH8sWiMMX5-1" value="return false" style="whiteSpace=wrap;html=1;" vertex="1" parent="QLCBrV8GI9gQZKOS1E-J-1">
                    <mxGeometry x="670" y="150" width="120" height="60" as="geometry"/>
                </mxCell>
            </root>
        </mxGraphModel>
    </diagram>
    <diagram id="xM9dOiJV2hR4uWppW9-2" name="ACTIVAR MARCHA">
        <mxGraphModel dx="1118" dy="601" grid="1" gridSize="10" guides="1" tooltips="1" connect="1" arrows="1" fold="1" page="1" pageScale="1" pageWidth="827" pageHeight="1169" math="0" shadow="0">
            <root>
                <mxCell id="DZam_KdbNR9x8AB81mSl-0"/>
                <mxCell id="DZam_KdbNR9x8AB81mSl-1" parent="DZam_KdbNR9x8AB81mSl-0"/>
                <mxCell id="yC1EQ9E1LxsEecyntWCT-1" style="edgeStyle=orthogonalEdgeStyle;rounded=0;orthogonalLoop=1;jettySize=auto;html=1;exitX=0.5;exitY=1;exitDx=0;exitDy=0;entryX=0.5;entryY=0;entryDx=0;entryDy=0;" parent="DZam_KdbNR9x8AB81mSl-1" source="XSTiTXCF9r6N3xBH2vjL-0" target="yC1EQ9E1LxsEecyntWCT-0" edge="1">
                    <mxGeometry relative="1" as="geometry"/>
                </mxCell>
                <mxCell id="XSTiTXCF9r6N3xBH2vjL-0" value="INICIO" style="rounded=1;whiteSpace=wrap;html=1;" parent="DZam_KdbNR9x8AB81mSl-1" vertex="1">
                    <mxGeometry x="220" width="120" height="60" as="geometry"/>
                </mxCell>
                <mxCell id="WYA6xW1_VnunRK4jC1Au-5" value="" style="edgeStyle=orthogonalEdgeStyle;rounded=0;orthogonalLoop=1;jettySize=auto;html=1;" parent="DZam_KdbNR9x8AB81mSl-1" source="yC1EQ9E1LxsEecyntWCT-0" target="WYA6xW1_VnunRK4jC1Au-4" edge="1">
                    <mxGeometry relative="1" as="geometry"/>
                </mxCell>
                <mxCell id="WYA6xW1_VnunRK4jC1Au-11" value="SI" style="edgeLabel;html=1;align=center;verticalAlign=middle;resizable=0;points=[];" parent="WYA6xW1_VnunRK4jC1Au-5" vertex="1" connectable="0">
                    <mxGeometry x="-0.1676" relative="1" as="geometry">
                        <mxPoint as="offset"/>
                    </mxGeometry>
                </mxCell>
                <mxCell id="yC1EQ9E1LxsEecyntWCT-0" value="ESTA EN N? Y &lt;br&gt;EMBRAGUE Y&lt;br&gt;&amp;nbsp;LEVA SUBIR" style="rhombus;whiteSpace=wrap;html=1;" parent="DZam_KdbNR9x8AB81mSl-1" vertex="1">
                    <mxGeometry x="185" y="120" width="190" height="80" as="geometry"/>
                </mxCell>
                <mxCell id="WYA6xW1_VnunRK4jC1Au-4" value="BAJA MARCHA (OJO 1ª)" style="shape=process;whiteSpace=wrap;html=1;backgroundOutline=1;" parent="DZam_KdbNR9x8AB81mSl-1" vertex="1">
                    <mxGeometry x="590" y="130" width="120" height="60" as="geometry"/>
                </mxCell>
                <mxCell id="WYA6xW1_VnunRK4jC1Au-13" value="" style="edgeStyle=orthogonalEdgeStyle;rounded=0;orthogonalLoop=1;jettySize=auto;html=1;" parent="DZam_KdbNR9x8AB81mSl-1" source="WYA6xW1_VnunRK4jC1Au-9" target="WYA6xW1_VnunRK4jC1Au-12" edge="1">
                    <mxGeometry relative="1" as="geometry"/>
                </mxCell>
                <mxCell id="WYA6xW1_VnunRK4jC1Au-14" value="SI" style="edgeLabel;html=1;align=center;verticalAlign=middle;resizable=0;points=[];" parent="WYA6xW1_VnunRK4jC1Au-13" vertex="1" connectable="0">
                    <mxGeometry x="-0.1442" y="-1" relative="1" as="geometry">
                        <mxPoint as="offset"/>
                    </mxGeometry>
                </mxCell>
                <mxCell id="WYA6xW1_VnunRK4jC1Au-16" value="" style="edgeStyle=orthogonalEdgeStyle;rounded=0;orthogonalLoop=1;jettySize=auto;html=1;" parent="DZam_KdbNR9x8AB81mSl-1" source="WYA6xW1_VnunRK4jC1Au-9" target="WYA6xW1_VnunRK4jC1Au-15" edge="1">
                    <mxGeometry relative="1" as="geometry"/>
                </mxCell>
                <mxCell id="WYA6xW1_VnunRK4jC1Au-9" value="MARCHA &amp;gt;=1 Y &lt;br&gt;MARCHA &amp;lt;6 Y&lt;br&gt;LEVA SUBIR" style="rhombus;whiteSpace=wrap;html=1;" parent="DZam_KdbNR9x8AB81mSl-1" vertex="1">
                    <mxGeometry x="185" y="500" width="190" height="80" as="geometry"/>
                </mxCell>
                <mxCell id="WYA6xW1_VnunRK4jC1Au-12" value="SUBE MARCHA&lt;br&gt;MARCHA++&lt;br&gt;estado_leva = 0" style="whiteSpace=wrap;html=1;" parent="DZam_KdbNR9x8AB81mSl-1" vertex="1">
                    <mxGeometry x="590" y="510" width="120" height="60" as="geometry"/>
                </mxCell>
                <mxCell id="WYA6xW1_VnunRK4jC1Au-18" value="" style="edgeStyle=orthogonalEdgeStyle;rounded=0;orthogonalLoop=1;jettySize=auto;html=1;" parent="DZam_KdbNR9x8AB81mSl-1" source="WYA6xW1_VnunRK4jC1Au-15" target="WYA6xW1_VnunRK4jC1Au-17" edge="1">
                    <mxGeometry relative="1" as="geometry"/>
                </mxCell>
                <mxCell id="WYA6xW1_VnunRK4jC1Au-19" value="SI" style="edgeLabel;html=1;align=center;verticalAlign=middle;resizable=0;points=[];" parent="WYA6xW1_VnunRK4jC1Au-18" vertex="1" connectable="0">
                    <mxGeometry x="0.1535" y="-5" relative="1" as="geometry">
                        <mxPoint x="-19" y="-5" as="offset"/>
                    </mxGeometry>
                </mxCell>
                <mxCell id="WYA6xW1_VnunRK4jC1Au-15" value="MARCHA &amp;lt;=6&lt;br&gt;MARCHA &amp;gt;=2&lt;br&gt;LEVA BAJAR" style="rhombus;whiteSpace=wrap;html=1;" parent="DZam_KdbNR9x8AB81mSl-1" vertex="1">
                    <mxGeometry x="185" y="660" width="190" height="80" as="geometry"/>
                </mxCell>
                <mxCell id="WYA6xW1_VnunRK4jC1Au-17" value="BAJA&amp;nbsp; MARCHA&lt;br&gt;MARCHA - -&amp;nbsp;&lt;br&gt;estado_leva = 0" style="whiteSpace=wrap;html=1;" parent="DZam_KdbNR9x8AB81mSl-1" vertex="1">
                    <mxGeometry x="590" y="670" width="120" height="60" as="geometry"/>
                </mxCell>
                <mxCell id="y2e520EfSdfnyOBtHUXU-0" value="" style="endArrow=none;dashed=1;html=1;dashPattern=1 3;strokeWidth=2;exitX=1;exitY=0;exitDx=0;exitDy=0;" parent="DZam_KdbNR9x8AB81mSl-1" source="yC1EQ9E1LxsEecyntWCT-0" target="y2e520EfSdfnyOBtHUXU-1" edge="1">
                    <mxGeometry width="50" height="50" relative="1" as="geometry">
                        <mxPoint x="375" y="120" as="sourcePoint"/>
                        <mxPoint x="425" y="70" as="targetPoint"/>
                    </mxGeometry>
                </mxCell>
                <mxCell id="y2e520EfSdfnyOBtHUXU-1" value="Caso de la primera marcha (de N a 1ª)" style="rounded=0;whiteSpace=wrap;html=1;" parent="DZam_KdbNR9x8AB81mSl-1" vertex="1">
                    <mxGeometry x="414" y="20" width="120" height="60" as="geometry"/>
                </mxCell>
            </root>
        </mxGraphModel>
    </diagram>
    <diagram id="qudMcIFTCDbZzhMMOB9S" name="LEER ENTRADAS">
        <mxGraphModel dx="1118" dy="601" grid="1" gridSize="10" guides="1" tooltips="1" connect="1" arrows="1" fold="1" page="1" pageScale="1" pageWidth="827" pageHeight="1169" math="0" shadow="0">
            <root>
                <mxCell id="RxCJ03jyoXgL_LsfVbet-0"/>
                <mxCell id="RxCJ03jyoXgL_LsfVbet-1" parent="RxCJ03jyoXgL_LsfVbet-0"/>
                <mxCell id="RxCJ03jyoXgL_LsfVbet-8" value="" style="edgeStyle=orthogonalEdgeStyle;rounded=0;orthogonalLoop=1;jettySize=auto;html=1;entryX=0.5;entryY=0;entryDx=0;entryDy=0;" parent="RxCJ03jyoXgL_LsfVbet-1" source="RxCJ03jyoXgL_LsfVbet-2" target="w5_zIWIJ2Dlwoiy1cGMA-12" edge="1">
                    <mxGeometry relative="1" as="geometry">
                        <mxPoint x="414" y="250" as="targetPoint"/>
                    </mxGeometry>
                </mxCell>
                <mxCell id="RxCJ03jyoXgL_LsfVbet-2" value="LEER ENTRADAS DIGITALES" style="shape=parallelogram;perimeter=parallelogramPerimeter;whiteSpace=wrap;html=1;fixedSize=1;" parent="RxCJ03jyoXgL_LsfVbet-1" vertex="1">
                    <mxGeometry x="342" y="130" width="144" height="80" as="geometry"/>
                </mxCell>
                <mxCell id="w5_zIWIJ2Dlwoiy1cGMA-3" style="edgeStyle=orthogonalEdgeStyle;rounded=0;orthogonalLoop=1;jettySize=auto;html=1;exitX=0.5;exitY=1;exitDx=0;exitDy=0;" parent="RxCJ03jyoXgL_LsfVbet-1" source="RxCJ03jyoXgL_LsfVbet-6" target="RxCJ03jyoXgL_LsfVbet-2" edge="1">
                    <mxGeometry relative="1" as="geometry"/>
                </mxCell>
                <mxCell id="RxCJ03jyoXgL_LsfVbet-6" value="INICIO" style="rounded=1;whiteSpace=wrap;html=1;" parent="RxCJ03jyoXgL_LsfVbet-1" vertex="1">
                    <mxGeometry x="354" width="120" height="60" as="geometry"/>
                </mxCell>
                <mxCell id="RxCJ03jyoXgL_LsfVbet-9" value="&lt;h1&gt;Entradas&lt;/h1&gt;&lt;p&gt;&lt;/p&gt;&lt;ul&gt;&lt;li&gt;rpm&lt;/li&gt;&lt;li&gt;leva subir&lt;/li&gt;&lt;li&gt;leva bajar&lt;/li&gt;&lt;li&gt;temp&lt;/li&gt;&lt;li&gt;embrague&lt;/li&gt;&lt;li&gt;sensor marcha arriba&lt;/li&gt;&lt;li&gt;sensor marcha abajo&lt;/li&gt;&lt;/ul&gt;&lt;p&gt;&lt;/p&gt;" style="text;html=1;strokeColor=none;fillColor=none;spacing=5;spacingTop=-20;whiteSpace=wrap;overflow=hidden;rounded=0;" parent="RxCJ03jyoXgL_LsfVbet-1" vertex="1">
                    <mxGeometry x="10" y="10" width="190" height="170" as="geometry"/>
                </mxCell>
                <mxCell id="RxCJ03jyoXgL_LsfVbet-10" value="" style="endArrow=none;dashed=1;html=1;dashPattern=1 3;strokeWidth=2;entryX=0;entryY=0.5;entryDx=0;entryDy=0;exitX=1;exitY=0.5;exitDx=0;exitDy=0;" parent="RxCJ03jyoXgL_LsfVbet-1" source="RxCJ03jyoXgL_LsfVbet-9" target="RxCJ03jyoXgL_LsfVbet-2" edge="1">
                    <mxGeometry width="50" height="50" relative="1" as="geometry">
                        <mxPoint x="282" y="230" as="sourcePoint"/>
                        <mxPoint x="332" y="180" as="targetPoint"/>
                    </mxGeometry>
                </mxCell>
                <mxCell id="w5_zIWIJ2Dlwoiy1cGMA-12" value="RETURN" style="whiteSpace=wrap;html=1;" parent="RxCJ03jyoXgL_LsfVbet-1" vertex="1">
                    <mxGeometry x="354" y="310" width="120" height="60" as="geometry"/>
                </mxCell>
            </root>
        </mxGraphModel>
    </diagram>
    <diagram id="A6--CBaRKFwD1SpncBQ3" name="COMPRUEBA RPM">
        <mxGraphModel dx="1118" dy="601" grid="1" gridSize="10" guides="1" tooltips="1" connect="1" arrows="1" fold="1" page="1" pageScale="1" pageWidth="827" pageHeight="1169" math="0" shadow="0">
            <root>
                <mxCell id="cgBBKGP33W72PGGk3_ZQ-0"/>
                <mxCell id="cgBBKGP33W72PGGk3_ZQ-1" parent="cgBBKGP33W72PGGk3_ZQ-0"/>
                <mxCell id="cgBBKGP33W72PGGk3_ZQ-12" style="edgeStyle=orthogonalEdgeStyle;rounded=0;orthogonalLoop=1;jettySize=auto;html=1;exitX=0.5;exitY=1;exitDx=0;exitDy=0;entryX=0.5;entryY=0;entryDx=0;entryDy=0;" parent="cgBBKGP33W72PGGk3_ZQ-1" source="cgBBKGP33W72PGGk3_ZQ-2" target="cgBBKGP33W72PGGk3_ZQ-5" edge="1">
                    <mxGeometry relative="1" as="geometry"/>
                </mxCell>
                <mxCell id="cgBBKGP33W72PGGk3_ZQ-2" value="INICIO&lt;br&gt;" style="rounded=1;whiteSpace=wrap;html=1;" parent="cgBBKGP33W72PGGk3_ZQ-1" vertex="1">
                    <mxGeometry x="354" y="10" width="120" height="60" as="geometry"/>
                </mxCell>
                <mxCell id="cgBBKGP33W72PGGk3_ZQ-7" value="" style="edgeStyle=orthogonalEdgeStyle;rounded=0;orthogonalLoop=1;jettySize=auto;html=1;" parent="cgBBKGP33W72PGGk3_ZQ-1" source="cgBBKGP33W72PGGk3_ZQ-5" target="cgBBKGP33W72PGGk3_ZQ-6" edge="1">
                    <mxGeometry relative="1" as="geometry"/>
                </mxCell>
                <mxCell id="cgBBKGP33W72PGGk3_ZQ-10" value="SI" style="edgeLabel;html=1;align=center;verticalAlign=middle;resizable=0;points=[];" parent="cgBBKGP33W72PGGk3_ZQ-7" vertex="1" connectable="0">
                    <mxGeometry x="-0.2421" y="-1" relative="1" as="geometry">
                        <mxPoint as="offset"/>
                    </mxGeometry>
                </mxCell>
                <mxCell id="cgBBKGP33W72PGGk3_ZQ-9" value="" style="edgeStyle=orthogonalEdgeStyle;rounded=0;orthogonalLoop=1;jettySize=auto;html=1;" parent="cgBBKGP33W72PGGk3_ZQ-1" source="cgBBKGP33W72PGGk3_ZQ-5" target="cgBBKGP33W72PGGk3_ZQ-8" edge="1">
                    <mxGeometry relative="1" as="geometry"/>
                </mxCell>
                <mxCell id="cgBBKGP33W72PGGk3_ZQ-11" value="NO" style="edgeLabel;html=1;align=center;verticalAlign=middle;resizable=0;points=[];" parent="cgBBKGP33W72PGGk3_ZQ-9" vertex="1" connectable="0">
                    <mxGeometry x="0.1667" relative="1" as="geometry">
                        <mxPoint x="-50" as="offset"/>
                    </mxGeometry>
                </mxCell>
                <mxCell id="cgBBKGP33W72PGGk3_ZQ-5" value="SI RPM &amp;gt; VBLE_MAX_RPM" style="rhombus;whiteSpace=wrap;html=1;" parent="cgBBKGP33W72PGGk3_ZQ-1" vertex="1">
                    <mxGeometry x="316" y="140" width="196" height="90" as="geometry"/>
                </mxCell>
                <mxCell id="f04YZGBogQeb3nVqrLPH-3" value="" style="edgeStyle=orthogonalEdgeStyle;rounded=0;orthogonalLoop=1;jettySize=auto;html=1;" parent="cgBBKGP33W72PGGk3_ZQ-1" source="cgBBKGP33W72PGGk3_ZQ-6" target="f04YZGBogQeb3nVqrLPH-2" edge="1">
                    <mxGeometry relative="1" as="geometry"/>
                </mxCell>
                <mxCell id="cgBBKGP33W72PGGk3_ZQ-6" value="ALERTA_CORTE=1" style="whiteSpace=wrap;html=1;" parent="cgBBKGP33W72PGGk3_ZQ-1" vertex="1">
                    <mxGeometry x="331" y="290" width="166" height="65" as="geometry"/>
                </mxCell>
                <mxCell id="cgBBKGP33W72PGGk3_ZQ-8" value="RETURN 1" style="whiteSpace=wrap;html=1;" parent="cgBBKGP33W72PGGk3_ZQ-1" vertex="1">
                    <mxGeometry x="650" y="155" width="120" height="60" as="geometry"/>
                </mxCell>
                <mxCell id="f04YZGBogQeb3nVqrLPH-5" value="" style="edgeStyle=orthogonalEdgeStyle;rounded=0;orthogonalLoop=1;jettySize=auto;html=1;" parent="cgBBKGP33W72PGGk3_ZQ-1" source="f04YZGBogQeb3nVqrLPH-2" target="f04YZGBogQeb3nVqrLPH-4" edge="1">
                    <mxGeometry relative="1" as="geometry"/>
                </mxCell>
                <mxCell id="f04YZGBogQeb3nVqrLPH-2" value="CORTAENCENDIDO" style="shape=process;whiteSpace=wrap;html=1;backgroundOutline=1;" parent="cgBBKGP33W72PGGk3_ZQ-1" vertex="1">
                    <mxGeometry x="326" y="430" width="176" height="57.5" as="geometry"/>
                </mxCell>
                <mxCell id="f04YZGBogQeb3nVqrLPH-4" value="RETURN 0" style="whiteSpace=wrap;html=1;" parent="cgBBKGP33W72PGGk3_ZQ-1" vertex="1">
                    <mxGeometry x="354" y="566.25" width="120" height="60" as="geometry"/>
                </mxCell>
            </root>
        </mxGraphModel>
    </diagram>
</mxfile>